<svg width="24" height="24" viewBox="0 0 24 24" fill="none" xmlns="http://www.w3.org/2000/svg">
<path fill-rule="evenodd" clip-rule="evenodd" d="M7.75 17C8.16421 17 8.5 17.3358 8.5 17.75V19.75C8.5 20.1642 8.16421 20.5 7.75 20.5C7.33579 20.5 7 20.1642 7 19.75V17.75C7 17.3358 7.33579 17 7.75 17ZM11.75 17C12.1642 17 12.5 17.3358 12.5 17.75V21.75C12.5 22.1642 12.1642 22.5 11.75 22.5C11.3358 22.5 11 22.1642 11 21.75V17.75C11 17.3358 11.3358 17 11.75 17ZM15.75 17C16.1642 17 16.5 17.3358 16.5 17.75V19.75C16.5 20.1642 16.1642 20.5 15.75 20.5C15.3358 20.5 15 20.1642 15 19.75V17.75C15 17.3358 15.3358 17 15.75 17ZM5.48336 17.4071C5.57014 17.0021 5.31215 16.6034 4.90712 16.5166C4.22997 16.3716 3.78886 16.1462 3.44768 15.8104C3.02656 15.3959 2.77433 14.8292 2.63955 13.8425C2.50164 12.8329 2.5 11.5015 2.5 9.62402C2.5 7.74656 2.50164 6.41511 2.63955 5.40556C2.77433 4.41881 3.02656 3.85213 3.44768 3.43764C3.87045 3.02153 4.45107 2.77108 5.4593 2.63766C6.48791 2.50154 7.84351 2.5 9.75 2.5H13.75C15.6565 2.5 17.0121 2.50154 18.0407 2.63766C19.0489 2.77108 19.6296 3.02153 20.0523 3.43764C20.4734 3.85213 20.7257 4.41881 20.8605 5.40556C20.9984 6.41511 21 7.74656 21 9.62402C21 11.5015 20.9984 12.8329 20.8605 13.8425C20.7257 14.8292 20.4734 15.3959 20.0523 15.8104C19.7111 16.1462 19.27 16.3716 18.5929 16.5166C18.1879 16.6034 17.9299 17.0021 18.0166 17.4071C18.1034 17.8121 18.5021 18.0701 18.9071 17.9834C19.779 17.7966 20.5065 17.468 21.1045 16.8794C21.855 16.1408 22.1885 15.203 22.3467 14.0455C22.5 12.9227 22.5 11.4886 22.5 9.68118V9.62402V9.56685C22.5 7.75942 22.5 6.32538 22.3467 5.20254C22.1885 4.04508 21.855 3.10724 21.1045 2.3686C20.3557 1.63159 19.4078 1.30548 18.2375 1.15062C17.099 0.999973 15.6441 0.999985 13.8057 1H13.75H9.75H9.69433C7.85592 0.999985 6.40096 0.999973 5.26252 1.15062C4.09225 1.30548 3.14427 1.63159 2.39547 2.3686C1.64501 3.10724 1.31145 4.04508 1.15335 5.20255C0.999971 6.32539 0.999984 7.75943 1 9.56688V9.56689V9.62402V9.68115V9.68116C0.999984 11.4886 0.999971 12.9227 1.15335 14.0455C1.31145 15.203 1.64501 16.1408 2.39547 16.8794C2.99349 17.468 3.72104 17.7966 4.59288 17.9834C4.99791 18.0701 5.39659 17.8121 5.48336 17.4071ZM18.25 10.75C18.8023 10.75 19.25 10.3023 19.25 9.75C19.25 9.19771 18.8023 8.75 18.25 8.75H18.241C17.6887 8.75 17.241 9.19771 17.241 9.75C17.241 10.3023 17.6887 10.75 18.241 10.75H18.25ZM6.25996 9.75C6.25996 10.3023 5.81224 10.75 5.25996 10.75H5.25098C4.69869 10.75 4.25098 10.3023 4.25098 9.75C4.25098 9.19771 4.69869 8.75 5.25098 8.75H5.25996C5.81224 8.75 6.25996 9.19771 6.25996 9.75ZM10 9.75C10 10.7165 10.7835 11.5 11.75 11.5C12.7165 11.5 13.5 10.7165 13.5 9.75C13.5 8.7835 12.7165 8 11.75 8C10.7835 8 10 8.7835 10 9.75ZM11.75 13C9.95508 13 8.5 11.5449 8.5 9.75C8.5 7.95507 9.95508 6.5 11.75 6.5C13.5449 6.5 15 7.95507 15 9.75C15 11.5449 13.5449 13 11.75 13Z" fill="currentColor"/>
</svg>
