<svg width="21" height="21" viewBox="0 0 21 21" fill="none" xmlns="http://www.w3.org/2000/svg">
<path fill-rule="evenodd" clip-rule="evenodd" d="M10.5 -0.0012207C10.9142 -0.0012207 11.25 0.334566 11.25 0.748779V4.64928C11.25 5.06349 10.9142 5.39928 10.5 5.39928C10.0858 5.39928 9.75003 5.06349 9.75003 4.64928V0.748779C9.75003 0.334566 10.0858 -0.0012207 10.5 -0.0012207ZM6.59954 1.94903C7.01375 1.94903 7.34954 2.28481 7.34954 2.69903V4.64928C7.34954 5.06349 7.01375 5.39928 6.59954 5.39928C6.18532 5.39928 5.84954 5.06349 5.84954 4.64928V2.69903C5.84954 2.28481 6.18532 1.94903 6.59954 1.94903ZM14.4005 1.94903C14.8147 1.94903 15.1505 2.28481 15.1505 2.69903V4.64928C15.1505 5.06349 14.8147 5.39928 14.4005 5.39928C13.9863 5.39928 13.6505 5.06349 13.6505 4.64928V2.69903C13.6505 2.28481 13.9863 1.94903 14.4005 1.94903ZM4.40751 4.9797C4.49429 5.38472 4.2363 5.7834 3.83128 5.87017C3.17339 6.01112 2.74682 6.22959 2.41731 6.55391C2.01077 6.95405 1.76583 7.50202 1.63468 8.46209C1.50042 9.44498 1.49878 10.7418 1.49878 12.5731C1.49878 14.4044 1.50042 15.7012 1.63468 16.6841C1.76583 17.6442 2.01077 18.1921 2.41731 18.5923C2.82551 18.9941 3.38712 19.2373 4.36826 19.3672C5.36977 19.4997 6.69019 19.5012 8.54977 19.5012H12.4503C14.3099 19.5012 15.6303 19.4997 16.6318 19.3672C17.6129 19.2373 18.1745 18.9941 18.5827 18.5923C18.9893 18.1921 19.2342 17.6442 19.3654 16.6841C19.4996 15.7012 19.5013 14.4044 19.5013 12.5731C19.5013 10.7418 19.4996 9.44498 19.3654 8.46209C19.2342 7.50202 18.9893 6.95405 18.5827 6.55391C18.2532 6.22959 17.8267 6.01112 17.1688 5.87017C16.7638 5.7834 16.5058 5.38472 16.5925 4.9797C16.6793 4.57467 17.078 4.31668 17.483 4.40346C18.3356 4.58612 19.0486 4.90775 19.6349 5.48486C20.3708 6.20916 20.6971 7.12829 20.8516 8.25908C21.0013 9.35526 21.0013 10.7547 21.0013 12.5161V12.5731V12.6301C21.0013 14.3915 21.0013 15.7909 20.8516 16.8871C20.6971 18.0179 20.3708 18.937 19.6349 19.6613C18.9007 20.384 17.9717 20.7029 16.8286 20.8542C15.7172 21.0013 14.2974 21.0013 12.5058 21.0012H12.4503H8.54977H8.49426C6.70264 21.0013 5.28283 21.0013 4.17148 20.8542C3.0283 20.7029 2.09934 20.384 1.36511 19.6613C0.62922 18.937 0.302948 18.0179 0.148485 16.8871C-0.00125073 15.7909 -0.00123727 14.3915 -0.00122034 12.6301V12.6301V12.5731V12.5161V12.5161C-0.00123727 10.7547 -0.00125072 9.35526 0.148485 8.25908C0.302948 7.12829 0.62922 6.20916 1.36511 5.48486C1.95145 4.90775 2.66446 4.58612 3.51704 4.40346C3.92206 4.31668 4.32074 4.57467 4.40751 4.9797ZM16.8383 11.4503C17.3906 11.4503 17.8383 11.898 17.8383 12.4503C17.8383 13.0026 17.3906 13.4503 16.8383 13.4503H16.8296C16.2773 13.4503 15.8296 13.0026 15.8296 12.4503C15.8296 11.898 16.2773 11.4503 16.8296 11.4503H16.8383ZM5.17141 12.4503C5.17141 11.898 4.7237 11.4503 4.17141 11.4503H4.16266C3.61037 11.4503 3.16266 11.898 3.16266 12.4503C3.16266 13.0026 3.61037 13.4503 4.16266 13.4503H4.17141C4.7237 13.4503 5.17141 13.0026 5.17141 12.4503ZM8.81222 12.4503C8.81222 11.5181 9.56788 10.7624 10.5 10.7624C11.4322 10.7624 12.1878 11.5181 12.1878 12.4503C12.1878 13.3824 11.4322 14.1381 10.5 14.1381C9.56788 14.1381 8.81222 13.3824 8.81222 12.4503ZM10.5 9.26244C8.73946 9.26244 7.31222 10.6897 7.31222 12.4503C7.31222 14.2108 8.73946 15.6381 10.5 15.6381C12.2606 15.6381 13.6878 14.2108 13.6878 12.4503C13.6878 10.6897 12.2606 9.26244 10.5 9.26244Z" fill="currentColor"/>
</svg>
