<svg width="32" height="32" viewBox="0 0 32 32" fill="none" xmlns="http://www.w3.org/2000/svg">
<path d="M25.6666 4.3335H6.99998C5.52931 4.3335 4.33331 5.5295 4.33331 7.00016V25.6668C4.33331 27.1375 5.52931 28.3335 6.99998 28.3335H25.6666C27.1373 28.3335 28.3333 27.1375 28.3333 25.6668V7.00016C28.3333 5.5295 27.1373 4.3335 25.6666 4.3335ZM6.33064 26.3335L6.33331 6.3335H26.619V26.3335H6.33064Z" fill="url(#paint0_linear_1_2617)"/>
<path d="M10.9333 12.7333C11.9274 12.7333 12.7333 11.9274 12.7333 10.9333C12.7333 9.93919 11.9274 9.1333 10.9333 9.1333C9.93919 9.1333 9.1333 9.93919 9.1333 10.9333C9.1333 11.9274 9.93919 12.7333 10.9333 12.7333Z" fill="currentColor"/>
<path d="M16.3333 18.1337C17.3274 18.1337 18.1333 17.3278 18.1333 16.3337C18.1333 15.3396 17.3274 14.5337 16.3333 14.5337C15.3392 14.5337 14.5333 15.3396 14.5333 16.3337C14.5333 17.3278 15.3392 18.1337 16.3333 18.1337Z" fill="currentColor"/>
<path d="M21.7333 23.5336C22.7274 23.5336 23.5333 22.7277 23.5333 21.7336C23.5333 20.7395 22.7274 19.9336 21.7333 19.9336C20.7392 19.9336 19.9333 20.7395 19.9333 21.7336C19.9333 22.7277 20.7392 23.5336 21.7333 23.5336Z" fill="currentColor"/>
<path d="M10.9333 23.5336C11.9274 23.5336 12.7333 22.7277 12.7333 21.7336C12.7333 20.7395 11.9274 19.9336 10.9333 19.9336C9.93919 19.9336 9.1333 20.7395 9.1333 21.7336C9.1333 22.7277 9.93919 23.5336 10.9333 23.5336Z" fill="currentColor"/>
<path d="M21.7333 12.7333C22.7274 12.7333 23.5333 11.9274 23.5333 10.9333C23.5333 9.93919 22.7274 9.1333 21.7333 9.1333C20.7392 9.1333 19.9333 9.93919 19.9333 10.9333C19.9333 11.9274 20.7392 12.7333 21.7333 12.7333Z" fill="currentColor"/>
<defs>
<linearGradient id="paint0_linear_1_2617" x1="-7.66669" y1="16.3335" x2="16.3333" y2="40.3335" gradientUnits="userSpaceOnUse">
<stop stop-color="currentColor" stop-opacity="0.36"/>
<stop offset="1" stop-color="currentColor"/>
</linearGradient>
</defs>
</svg>
