<svg width="32" height="32" viewBox="0 0 32 32" fill="none" xmlns="http://www.w3.org/2000/svg">
<path d="M28.0476 5.3335C28.4228 5.3335 28.7944 5.4074 29.141 5.55098C29.4877 5.69457 29.8026 5.90502 30.0679 6.17033C30.3332 6.43564 30.5437 6.75061 30.6873 7.09726C30.8309 7.4439 30.9048 7.81543 30.9048 8.19064V25.3335C30.9048 25.7087 30.8309 26.0802 30.6873 26.4269C30.5437 26.7735 30.3332 27.0885 30.0679 27.3538C29.8026 27.6191 29.4877 27.8296 29.141 27.9732C28.7944 28.1167 28.4228 28.1906 28.0476 28.1906H5.19049C4.81528 28.1906 4.44375 28.1167 4.09711 27.9732C3.75046 27.8296 3.43549 27.6191 3.17018 27.3538C2.90487 27.0885 2.69442 26.7735 2.55083 26.4269C2.40725 26.0802 2.33334 25.7087 2.33334 25.3335V8.19064C2.33334 7.81543 2.40725 7.4439 2.55083 7.09726C2.69442 6.75061 2.90487 6.43564 3.17018 6.17033C3.43549 5.90502 3.75046 5.69457 4.09711 5.55098C4.44375 5.4074 4.81528 5.3335 5.19049 5.3335H28.0476ZM28.0476 7.47635H5.19049C5.09668 7.47635 5.0038 7.49483 4.91714 7.53073C4.83048 7.56662 4.75174 7.61924 4.68541 7.68556C4.61908 7.75189 4.56647 7.83063 4.53057 7.91729C4.49468 8.00395 4.4762 8.09684 4.4762 8.19064V25.3335C4.4762 25.4273 4.49468 25.5202 4.53057 25.6068C4.56647 25.6935 4.61908 25.7722 4.68541 25.8386C4.75174 25.9049 4.83048 25.9575 4.91714 25.9934C5.0038 26.0293 5.09668 26.0478 5.19049 26.0478H28.0476C28.1414 26.0478 28.2343 26.0293 28.321 25.9934C28.4076 25.9575 28.4864 25.9049 28.5527 25.8386C28.619 25.7722 28.6716 25.6935 28.7075 25.6068C28.7434 25.5202 28.7619 25.4273 28.7619 25.3335V8.19064C28.7619 8.09684 28.7434 8.00395 28.7075 7.91729C28.6716 7.83063 28.619 7.75189 28.5527 7.68556C28.4864 7.61924 28.4076 7.56662 28.321 7.53073C28.2343 7.49483 28.1414 7.47635 28.0476 7.47635Z" fill="url(#paint0_linear_1_2566)"/>
<path d="M20.5476 10.3335C20.8318 10.3335 21.1043 10.4464 21.3052 10.6473C21.5062 10.8482 21.619 11.1208 21.619 11.4049V12.8335C21.619 14.2543 21.0546 15.6169 20.05 16.6216C19.0453 17.6262 17.6827 18.1906 16.2619 18.1906C14.8411 18.1906 13.4785 17.6262 12.4738 16.6216C11.4692 15.6169 10.9048 14.2543 10.9048 12.8335V11.4049C10.9048 11.1208 11.0176 10.8482 11.2186 10.6473C11.4195 10.4464 11.692 10.3335 11.9762 10.3335C12.2603 10.3335 12.5329 10.4464 12.7338 10.6473C12.9347 10.8482 13.0476 11.1208 13.0476 11.4049V12.8335C13.0476 13.686 13.3863 14.5035 13.9891 15.1063C14.5918 15.7091 15.4094 16.0478 16.2619 16.0478C17.1144 16.0478 17.9319 15.7091 18.5347 15.1063C19.1375 14.5035 19.4762 13.686 19.4762 12.8335V11.4049C19.4762 11.1208 19.5891 10.8482 19.79 10.6473C19.9909 10.4464 20.2635 10.3335 20.5476 10.3335Z" fill="currentColor"/>
<defs>
<linearGradient id="paint0_linear_1_2566" x1="-11.9524" y1="16.7621" x2="10.3473" y2="44.6366" gradientUnits="userSpaceOnUse">
<stop stop-color="currentColor" stop-opacity="0.36"/>
<stop offset="1" stop-color="currentColor"/>
</linearGradient>
</defs>
</svg>
